<?xml version="1.0" encoding="UTF-8"?>
<svg width="80px" height="80px" viewBox="0 0 80 80" version="1.1" xmlns="http://www.w3.org/2000/svg" xmlns:xlink="http://www.w3.org/1999/xlink">
    <title>ic_light</title>
    <g id="Page-1" stroke="none" stroke-width="1" fill="none" fill-rule="evenodd">
        <g id="ic_light">
            <path d="M42.0004182,56.8900962 L42,65 C42,66.1045695 41.1045695,67 40,67 C38.8954305,67 38,66.1045695 38,65 L38.0005846,56.8902071 C38.6570637,56.9627555 39.3241824,57 40,57 C40.6761617,57 41.3436156,56.9627176 42.0004182,56.8900962 Z M53.6098168,50.7806265 L59.0918831,56.263456 C59.8729317,57.0445046 59.8729317,58.3108345 59.0918831,59.0918831 C58.3108345,59.8729317 57.0445046,59.8729317 56.263456,59.0918831 L50.670724,53.4975225 C51.7484928,52.7029163 52.734471,51.7910038 53.6098168,50.7806265 Z M29.3302789,53.4982618 L23.736544,59.0918831 C22.9554954,59.8729317 21.6891655,59.8729317 20.9081169,59.0918831 C20.1270683,58.3108345 20.1270683,57.0445046 20.9081169,56.263456 L26.3901832,50.7806265 C27.2658005,51.7913172 28.2521189,52.703482 29.3302789,53.4982618 Z M57.9727111,38.0003561 L65,38 C66.1045695,38 67,38.8954305 67,40 C67,41.1045695 66.1045695,42 65,42 L57.7509857,42.0008283 C57.9147554,41.0249418 58,40.0224259 58,39 C58,38.6645633 57.9908246,38.3312695 57.9727111,38.0003561 Z M22,39 C22,40.0224259 22.0852446,41.0249418 22.2490143,42.0008283 L15,42 C13.8954305,42 13,41.1045695 13,40 C13,38.8954305 13.8954305,38 15,38 L22.0272889,38.0003561 C22.0091754,38.3312695 22,38.6645633 22,39 Z M23.736544,20.9081169 L28.2193735,25.3901832 C27.2089962,26.265529 26.2970837,27.2515072 25.5024775,28.329276 L20.9081169,23.736544 C20.1270683,22.9554954 20.1270683,21.6891655 20.9081169,20.9081169 C21.6891655,20.1270683 22.9554954,20.1270683 23.736544,20.9081169 Z M59.0918831,20.9081169 C59.8729317,21.6891655 59.8729317,22.9554954 59.0918831,23.736544 L54.4975225,28.329276 C53.7029163,27.2515072 52.7910038,26.265529 51.7806265,25.3901832 L56.263456,20.9081169 C57.0445046,20.1270683 58.3108345,20.1270683 59.0918831,20.9081169 Z M40,13 C41.1045695,13 42,13.8954305 42,15 L42.0004182,21.1099038 C41.3436156,21.0372824 40.6761617,21 40,21 C39.3241824,21 38.6570637,21.0372445 38.0005846,21.1097929 L38,15 C38,13.8954305 38.8954305,13 40,13 Z" id="Combined-Shape" fill="#E0EEC5"></path>
            <path d="M40,25 C47.7319865,25 54,31.2680135 54,39 C54,46.7319865 47.7319865,53 40,53 C32.2680135,53 26,46.7319865 26,39 C26,31.2680135 32.2680135,25 40,25 Z M40,28 L40,50 L40,50 C46.0751322,50 51,45.0751322 51,39 C51,32.9248678 46.0751322,28 40,28 Z" id="Combined-Shape" fill="#B8DE6F"></path>
        </g>
    </g>
</svg>