<?xml version="1.0" encoding="UTF-8"?>
<svg width="80px" height="80px" viewBox="0 0 80 80" version="1.1" xmlns="http://www.w3.org/2000/svg" xmlns:xlink="http://www.w3.org/1999/xlink">
    <title>ic_soilmoisture</title>
    <g id="Page-1" stroke="none" stroke-width="1" fill="none" fill-rule="evenodd">
        <g id="ic_soilmoisture">
            <path d="M23.8574535,40.232756 C20.8502022,40.1691454 17,38.0847382 17,31.829559 C17,27.6873875 19.2307819,23.1880921 23.6923457,18.3316729 L24,18 C28.6666667,22.9833942 31,27.5932472 31,31.829559 C31,38.1840268 27.026599,40.2342663 24,40.2342663 L23.8574535,40.232756 Z" id="Path" fill="#6FB9DE"></path>
            <path d="M55.8574535,40.232756 C52.8502022,40.1691454 49,38.0847382 49,31.829559 C49,27.6873875 51.2307819,23.1880921 55.6923457,18.3316729 L56,18 C60.6666667,22.9833942 63,27.5932472 63,31.829559 C63,38.1840268 59.026599,40.2342663 56,40.2342663 L55.8574535,40.232756 Z" id="Path" fill="#6FB9DE"></path>
            <path d="M39.8574535,64.232756 C36.8502022,64.1691454 33,62.0847382 33,55.829559 C33,51.6873875 35.2307819,47.1880921 39.6923457,42.3316729 L40,42 C44.6666667,46.9833942 47,51.5932472 47,55.829559 C47,62.1840268 43.026599,64.2342663 40,64.2342663 L39.8574535,64.232756 Z" id="Path" fill="#C5E1EE"></path>
        </g>
    </g>
</svg>