<?xml version="1.0" encoding="UTF-8"?>
<svg width="80px" height="80px" viewBox="0 0 80 80" version="1.1" xmlns="http://www.w3.org/2000/svg" xmlns:xlink="http://www.w3.org/1999/xlink">
    <title>ic_temp</title>
    <g id="Page-1" stroke="none" stroke-width="1" fill="none" fill-rule="evenodd">
        <g id="ic_temp">
            <path d="M38.9130435,13 C43.5234205,13 47.2608696,16.737449 47.2608696,21.3477838 L47.2608696,21.3477838 L47.2615652,42.3043478 L47.5399019,42.5181865 C50.7675813,45.0697831 52.7390441,48.9402582 52.8232744,53.1532786 L52.8232744,53.1532786 L52.826087,53.4347826 C52.826087,61.1187443 46.5970052,67.3478261 38.9130435,67.3478261 C31.2290817,67.3478261 25,61.1187443 25,53.4347826 C25,49.0166205 27.0763613,44.9488548 30.5088882,42.3457417 L30.5088882,42.3457417 L30.5645217,42.3036522 L30.5652174,21.3478261 C30.5652174,16.8083779 34.1885526,13.115205 38.7008871,13.0026434 L38.7008871,13.0026434 Z M38.9130435,15.7826087 C35.8394588,15.7826087 33.3478261,18.2742414 33.3478261,21.3478275 L33.3478261,21.3478275 L33.3478019,43.7645737 L32.7304273,44.1778333 C29.66141,46.2321785 27.7826087,49.6730406 27.7826087,53.4347826 C27.7826087,59.581952 32.7658741,64.5652174 38.9130435,64.5652174 C45.0602129,64.5652174 50.0434783,59.581952 50.0434783,53.4347826 C50.0434783,49.6733042 48.1649424,46.2326529 45.0962785,44.1782475 L45.0962785,44.1782475 L44.4790029,43.7649946 L44.4782609,21.3478261 C44.4782609,18.2742414 41.9866282,15.7826087 38.9130435,15.7826087 Z M53.5130435,36.2173913 C54.2862421,36.2173913 54.9130435,36.8441927 54.9130435,37.6173913 C54.9130435,38.39059 54.2862421,39.0173913 53.5130435,39.0173913 L51.4434783,39.0173913 C50.6702796,39.0173913 50.0434783,38.39059 50.0434783,37.6173913 C50.0434783,36.8441927 50.6702796,36.2173913 51.4434783,36.2173913 L53.5130435,36.2173913 Z M55.6,30.1304348 C56.3731986,30.1304348 57,30.7572361 57,31.5304348 C57,32.3036334 56.3731986,32.9304348 55.6,32.9304348 L51.4434783,32.9304348 C50.6702796,32.9304348 50.0434783,32.3036334 50.0434783,31.5304348 C50.0434783,30.7572361 50.6702796,30.1304348 51.4434783,30.1304348 L55.6,30.1304348 Z M53.5130435,24.0434783 C54.2862421,24.0434783 54.9130435,24.6702796 54.9130435,25.4434783 C54.9130435,26.2166769 54.2862421,26.8434783 53.5130435,26.8434783 L51.4434783,26.8434783 C50.6702796,26.8434783 50.0434783,26.2166769 50.0434783,25.4434783 C50.0434783,24.6702796 50.6702796,24.0434783 51.4434783,24.0434783 L53.5130435,24.0434783 Z M55.6,17.9565217 C56.3731986,17.9565217 57,18.5833231 57,19.3565217 C57,20.1297204 56.3731986,20.7565217 55.6,20.7565217 L51.4434783,20.7565217 C50.6702796,20.7565217 50.0434783,20.1297204 50.0434783,19.3565217 C50.0434783,18.5833231 50.6702796,17.9565217 51.4434783,17.9565217 L55.6,17.9565217 Z" id="Combined-Shape" fill="#EED8C5"></path>
            <path d="M38.9130435,24.1304348 C40.4498358,24.1304348 41.6956522,25.3762511 41.6956522,26.9130435 L41.696099,45.5621217 C44.93814,46.7082274 47.2608696,49.8002537 47.2608696,53.4347826 C47.2608696,58.0451597 43.5234205,61.7826087 38.9130435,61.7826087 C34.3026664,61.7826087 30.5652174,58.0451597 30.5652174,53.4347826 C30.5652174,49.8000935 32.8881517,46.7079547 36.1304168,45.5619701 L36.1304348,26.9130435 C36.1304348,25.3762511 37.3762511,24.1304348 38.9130435,24.1304348 Z" id="Combined-Shape" fill="#DEA26F"></path>
        </g>
    </g>
</svg>